<?xml version="1.0" standalone="no"?>
<!DOCTYPE svg PUBLIC "-//W3C//DTD SVG 20010904//EN"
 "http://www.w3.org/TR/2001/REC-SVG-20010904/DTD/svg10.dtd">
<svg version="1.0" xmlns="http://www.w3.org/2000/svg"
 width="1280.000000pt" height="1280.000000pt" viewBox="0 0 1280.000000 1280.000000"
 preserveAspectRatio="xMidYMid meet">
<metadata>
Created by potrace 1.14, written by Peter Selinger 2001-2017
</metadata>
<g transform="translate(0.000000,1280.000000) scale(0.100000,-0.100000)"
fill="#000000" stroke="none">
<path d="M0 6400 l0 -6400 6400 0 6400 0 0 6400 0 6400 -6400 0 -6400 0 0
-6400z m4858 3317 l822 -822 -1068 -1068 -1067 -1067 -825 825 -825 825 1065
1065 c586 586 1067 1065 1070 1065 3 0 375 -370 828 -823z m5324 -1549 l-242
-243 -1065 1065 -1065 1065 242 242 243 243 1065 -1065 1065 -1065 -243 -242z
m-1257 -1258 l-630 -630 1065 -1065 1065 -1065 -1068 -1067 -1067 -1068 -1065
1065 -1065 1065 -630 -630 -630 -630 -1067 1067 -1067 1067 2330 2325 2329
2326 1065 -1065 1065 -1065 -630 -630z m-4653 -4652 l-242 -243 -1065 1065
-1065 1065 242 242 243 243 1065 -1065 1065 -1065 -243 -242z"/>
</g>
</svg>
